<svg xmlns="http://www.w3.org/2000/svg" width="24" height="24" viewBox="0 0 24 24">
    <path data-name="24x24 copy" style="fill:none" d="M0 0h24v24H0z"/>
    <g data-name="그룹 4309">
        <path data-name="패스 968" d="M12 9h20v20H12z" transform="translate(-10 -7)" style="fill-rule:evenodd;fill:none"/>
        <path data-name="패스 969" d="M19.969 10a6.969 6.969 0 0 1 5.68 11.005l5.183 5.185a.579.579 0 0 1 0 .821l-.821.822a.58.58 0 0 1-.821 0l-5.184-5.183A6.969 6.969 0 1 1 19.969 10zm0 2.323a4.646 4.646 0 1 0 4.646 4.646 4.646 4.646 0 0 0-4.646-4.646z" transform="translate(-10 -7)" style="fill:#fff;fill-rule:evenodd"/>
    </g>
</svg>
