<svg id="ic_survey_alarm" xmlns="http://www.w3.org/2000/svg" width="24" height="24" viewBox="0 0 24 24">
  <rect id="Layer_2263_copy" data-name="Layer 2263 copy" width="24" height="24" fill="none"/>
  <path id="bell" d="M16.757,13.818c-.737-.792-2.116-1.983-2.116-5.885a6.023,6.023,0,0,0-4.88-5.918V1.22a1.22,1.22,0,1,0-2.439,0v.795a6.023,6.023,0,0,0-4.88,5.918c0,3.9-1.379,5.093-2.116,5.885A1.192,1.192,0,0,0,0,14.646a1.222,1.222,0,0,0,1.224,1.22H15.861a1.221,1.221,0,0,0,1.224-1.22,1.191,1.191,0,0,0-.328-.828Zm-14.182.218a9.551,9.551,0,0,0,1.7-6.08c0-.008,0-.014,0-.022a4.272,4.272,0,1,1,8.543,0c0,.008,0,.014,0,.022a9.549,9.549,0,0,0,1.7,6.08Zm5.968,5.492a2.44,2.44,0,0,0,2.44-2.441H6.1A2.44,2.44,0,0,0,8.543,19.527Z" transform="translate(3.458 2.223)"/>
</svg>
