<svg xmlns="http://www.w3.org/2000/svg" width="24" height="24" viewBox="0 0 24 24">
    <path data-name="24x24 copy" style="fill:none" d="M0 0h24v24H0z"/>
    <path data-name="패스 996" d="M45.643 36.643a.643.643 0 0 1-.643.643h-7.714V45a.643.643 0 0 1-.643.643h-1.286a.643.643 0 0 1-.643-.643v-7.714H27a.643.643 0 0 1-.643-.643v-1.286a.643.643 0 0 1 .643-.643h7.714V27a.643.643 0 0 1 .643-.643h1.286a.643.643 0 0 1 .643.643v7.714H45a.643.643 0 0 1 .643.643z" transform="translate(-24 -24)" style="fill:#fff;fill-rule:evenodd"/>
</svg>
